<svg width="27" height="27" viewBox="0 0 27 27" fill="none" xmlns="http://www.w3.org/2000/svg">
<path d="M21.5183 7.79929C22.7473 7.79929 23.7436 6.80298 23.7436 5.57396C23.7436 4.34495 22.7473 3.34863 21.5183 3.34863C20.2893 3.34863 19.293 4.34495 19.293 5.57396C19.293 6.80298 20.2893 7.79929 21.5183 7.79929Z" fill="black"/>
<path d="M5.48314 7.79929C6.71216 7.79929 7.70847 6.80298 7.70847 5.57396C7.70847 4.34495 6.71216 3.34863 5.48314 3.34863C4.25413 3.34863 3.25781 4.34495 3.25781 5.57396C3.25781 6.80298 4.25413 7.79929 5.48314 7.79929Z" fill="black"/>
<path d="M21.5183 23.6513C22.7473 23.6513 23.7436 22.655 23.7436 21.426C23.7436 20.197 22.7473 19.2007 21.5183 19.2007C20.2893 19.2007 19.293 20.197 19.293 21.426C19.293 22.655 20.2893 23.6513 21.5183 23.6513Z" fill="black"/>
<path d="M5.48314 23.6513C6.71216 23.6513 7.70847 22.655 7.70847 21.426C7.70847 20.197 6.71216 19.2007 5.48314 19.2007C4.25413 19.2007 3.25781 20.197 3.25781 21.426C3.25781 22.655 4.25413 23.6513 5.48314 23.6513Z" fill="black"/>
<path d="M15.0108 3.80178C15.8817 2.93081 15.8817 1.5242 15.0108 0.653227C14.1398 -0.217742 12.7332 -0.217742 11.8622 0.653227C10.9912 1.5242 10.9912 2.93081 11.8622 3.80178C12.7332 4.6684 14.1398 4.6684 15.0108 3.80178Z" fill="black"/>
<path d="M11.9892 23.1983C11.1182 24.0693 11.1182 25.4759 11.9892 26.3469C12.8601 27.2178 14.2668 27.2178 15.1377 26.3469C16.0087 25.4759 16.0087 24.0693 15.1377 23.1983C14.2668 22.3317 12.8601 22.3317 11.9892 23.1983Z" fill="black"/>
<path d="M2.22533 15.7905C3.45434 15.7905 4.45066 14.7942 4.45066 13.5652C4.45066 12.3362 3.45434 11.3398 2.22533 11.3398C0.996313 11.3398 0 12.3362 0 13.5652C0 14.7942 0.996313 15.7905 2.22533 15.7905Z" fill="black"/>
<path d="M26.3467 11.8627C25.4757 10.9917 24.0691 10.9917 23.1981 11.8627C22.3272 12.7337 22.3272 14.1403 23.1981 15.0113C24.0691 15.8822 25.4757 15.8822 26.3467 15.0113C27.2177 14.1403 27.2177 12.7337 26.3467 11.8627Z" fill="black"/>
<path d="M18.2785 9.13622L19.4979 7.91686C19.2758 7.72525 19.0842 7.50315 18.9231 7.25928L17.6602 8.51783C17.769 8.60928 17.8735 8.70944 17.9737 8.8096C18.0782 8.91412 18.1784 9.02299 18.2785 9.13622Z" fill="black"/>
<path d="M8.61001 9.13201C8.70146 9.01878 8.80162 8.91427 8.90614 8.80975C9.01066 8.70523 9.11517 8.60943 9.22404 8.51362L8.03517 7.3291C7.86969 7.56862 7.67372 7.78636 7.44727 7.96926L8.61001 9.13201Z" fill="black"/>
<path d="M13.1309 6.94135C13.2354 6.93699 13.3355 6.93264 13.4401 6.93264C13.6273 6.93264 13.8189 6.94134 14.0018 6.95876V5.27344C13.8189 5.30392 13.6317 5.3257 13.4401 5.3257C13.3355 5.3257 13.2354 5.32134 13.1309 5.30828V6.94135Z" fill="black"/>
<path d="M7.05893 13.8705C7.02844 13.5831 7.02409 13.2913 7.04586 12.9995H5.27344C5.30392 13.1868 5.3257 13.374 5.3257 13.5656C5.3257 13.6702 5.32134 13.7703 5.30828 13.8705H7.05893Z" fill="black"/>
<path d="M19.8314 12.9995C19.8532 13.2913 19.8488 13.5831 19.8184 13.8705H21.7084C21.6909 13.7268 21.6779 13.5831 21.6779 13.4394C21.6779 13.2913 21.6909 13.1432 21.7127 12.9995H19.8314Z" fill="black"/>
<path d="M14.0018 21.709V19.7275C13.8189 19.745 13.6273 19.7537 13.4401 19.7537C13.3355 19.7537 13.2354 19.7493 13.1309 19.745V21.709C13.2746 21.6916 13.4183 21.6785 13.5663 21.6785C13.7144 21.6785 13.8581 21.6916 14.0018 21.709Z" fill="black"/>
<path d="M19.6619 18.9521L18.2683 17.5586C18.1725 17.6675 18.0767 17.772 17.9722 17.8765C17.8677 17.981 17.7632 18.0768 17.6543 18.177L19.0478 19.5705C19.222 19.3354 19.4267 19.1263 19.6619 18.9521Z" fill="black"/>
<path d="M8.61428 17.563L7.27734 18.9043C7.51686 19.0741 7.72589 19.2744 7.9088 19.5009L9.23267 18.177C9.11945 18.0856 9.01057 17.9811 8.90606 17.8765C8.8059 17.7764 8.70574 17.6719 8.61428 17.563Z" fill="black"/>
<path d="M17.3541 9.42405C15.1898 7.25969 11.6841 7.25969 9.51975 9.42405C7.35539 11.5884 7.35539 15.0941 9.51975 17.2584C11.6841 19.4228 15.1898 19.4228 17.3541 17.2584C19.5185 15.0984 19.5185 11.5884 17.3541 9.42405ZM13.4435 10.5912C14.3275 10.5912 15.0461 11.3097 15.0461 12.1937C15.0461 13.0778 14.3275 13.7963 13.4435 13.7963C12.5594 13.7963 11.8409 13.0778 11.8409 12.1937C11.8409 11.3097 12.5594 10.5912 13.4435 10.5912ZM13.4435 17.1539C12.1936 17.1539 11.044 16.7446 10.1207 16.0478C10.4081 15.1855 11.0222 14.4713 11.8191 14.0533C12.2546 14.4365 12.8251 14.6673 13.4478 14.6673C14.0706 14.6673 14.6411 14.4321 15.0765 14.0533C15.8735 14.4713 16.4875 15.1855 16.7749 16.0478C15.843 16.7446 14.6933 17.1539 13.4435 17.1539Z" fill="black"/>
</svg>
