<svg width="193" height="35" viewBox="0 0 193 35" fill="none" xmlns="http://www.w3.org/2000/svg">
<path d="M10.1811 12.6093L14.5125 12.6016C14.5623 12.6016 14.603 12.6418 14.6032 12.6918L14.6106 17.0073C14.6106 17.0573 14.5702 17.0978 14.5203 17.0981L10.189 17.1058C10.1391 17.1058 10.0985 17.0653 10.0983 17.0153L10.0908 12.7C10.0908 12.6498 10.1312 12.6093 10.1811 12.6093Z" fill="#BBBBBB"/>
<path d="M24.6466 2.52734H10.1935C10.1499 2.52734 10.1279 2.54933 10.1279 2.593V8.7615C10.1279 8.79776 10.1573 8.82716 10.1935 8.82716H18.286C18.356 8.82716 18.3908 8.86227 18.3908 8.93192L18.434 20.9255L24.712 20.9675V2.593C24.712 2.55675 24.6828 2.52734 24.6466 2.52734Z" fill="white"/>
<path d="M24.7114 20.9375H23.9772C22.1131 20.9435 20.2651 20.9298 18.4333 20.8955H6.38185C6.32413 20.8955 6.29536 20.8667 6.29536 20.8088L6.29134 2.58786C6.29134 2.5733 6.28611 2.55931 6.27666 2.54847C6.25494 2.52306 6.21692 2.5202 6.1916 2.5419C6.1916 2.5419 0 8.79947 0 8.86769V27.1717C0 27.2153 0.0219233 27.2373 0.0655702 27.2373L18.5317 27.2387C18.5496 27.2387 18.7204 27.0629 18.9905 26.7712L24.7114 20.9375Z" fill="#F40E00"/>
<path d="M35.933 2.95894V15.0522H41.36V20.5234H29.1729V2.95894H35.933ZM50.2026 17.9199L49.7147 20.5234H42.4192L47.5725 2.95894H56.2008L61.3542 20.5234H54.0587L53.5827 17.9199H50.2026ZM52.8089 13.7565L51.8928 8.80196L50.9763 13.7565H52.8089ZM70.7444 2.95894H77.8019V13.7565C77.8019 15.0924 77.4249 16.3121 76.6711 17.4157C75.9252 18.5198 74.9215 19.3992 73.6603 20.0555C72.3986 20.7112 71.0023 21.0391 69.4709 21.0391C67.9394 21.0391 66.5431 20.7112 65.2814 20.0555C64.0202 19.3992 63.0122 18.5198 62.2588 17.4157C61.513 16.3121 61.1399 15.0924 61.1399 13.7565V2.95894H68.1973V13.409C68.1973 13.8009 68.3206 14.1364 68.5662 14.4165C68.8203 14.6966 69.1219 14.8366 69.4709 14.8366C69.8198 14.8366 70.1176 14.6966 70.3636 14.4165C70.6173 14.1364 70.7444 13.8009 70.7444 13.409V2.95894ZM91.3573 2.95894H97.5699V20.5234H91.3573L86.1684 12.5329V20.5234H79.944V2.95894H86.1684L91.3573 10.9494V2.95894ZM113.149 14.6923V20.391C111.705 20.8312 110.32 21.051 108.995 21.051C106.623 21.051 104.738 20.651 103.342 19.8514C101.954 19.0513 100.858 17.9596 100.057 16.5759C99.264 15.1846 98.8591 13.5887 98.8434 11.7892C98.8591 9.98156 99.264 8.38566 100.057 7.00198C100.858 5.61064 101.954 4.51899 103.342 3.72701C104.738 2.92691 106.623 2.52734 108.995 2.52734C110.32 2.52734 111.705 2.7472 113.149 3.18692V8.8856C112.07 8.40573 110.971 8.1658 109.852 8.1658C108.583 8.1658 107.627 8.46595 106.984 9.06579C106.349 9.6575 106.032 10.5656 106.032 11.7892C106.032 13.0128 106.349 13.9247 106.984 14.5245C107.627 15.1162 108.583 15.4121 109.852 15.4121C110.971 15.4121 112.07 15.1722 113.149 14.6923ZM124.99 14.1527H121.492V20.5234H114.886V2.95894H121.492V9.32962H124.99V2.95894H131.584V20.5234H124.99V14.1527Z" fill="white"/>
<path d="M139.326 7.55379V9.78682H140.717C141.021 9.78682 141.286 9.67782 141.512 9.45936C141.739 9.24882 141.851 8.98797 141.851 8.67589C141.851 8.36427 141.739 8.09923 141.512 7.88077C141.286 7.66278 141.021 7.55379 140.717 7.55379H139.326ZM141.992 15.7378C142.218 15.4807 142.331 15.1807 142.331 14.8379C142.331 14.4792 142.202 14.1672 141.945 13.9021C141.672 13.645 141.357 13.5164 140.998 13.5164H139.326V16.1356H141.115C141.474 16.1356 141.766 16.0029 141.992 15.7378ZM145.277 11.1432C147.475 11.8759 148.575 13.2826 148.575 15.3638C148.575 17.0244 148.056 18.275 147.019 19.1172C145.983 19.9589 144.806 20.3799 143.488 20.3799H133.363V3.26241H142.939C144.381 3.26241 145.542 3.64436 146.423 4.40826C147.304 5.17217 147.744 6.18947 147.744 7.46016C147.744 9.3308 146.922 10.5586 145.277 11.1432ZM154.947 11.8913C154.947 12.6161 155.099 13.2398 155.403 13.7619C155.707 14.2841 156.112 14.6856 156.619 14.9665C157.133 15.2389 157.698 15.3754 158.314 15.3754C158.93 15.3754 159.491 15.2389 159.997 14.9665C160.512 14.6856 160.921 14.2841 161.225 13.7619C161.529 13.2398 161.681 12.6161 161.681 11.8913C161.681 11.1665 161.529 10.5391 161.225 10.009C160.921 9.47892 160.512 9.06948 159.997 8.78116C159.491 8.49283 158.93 8.34843 158.314 8.34843C157.698 8.34843 157.133 8.49283 156.619 8.78116C156.112 9.06948 155.707 9.47892 155.403 10.009C155.099 10.5391 154.947 11.1665 154.947 11.8913ZM149.194 11.9146C149.194 10.5428 149.432 9.29959 149.907 8.18494C150.383 7.06237 151.038 6.10376 151.872 5.30865C152.713 4.51353 153.684 3.90567 154.783 3.48459C155.89 3.05606 157.067 2.8418 158.314 2.8418C159.569 2.8418 160.746 3.05606 161.845 3.48459C162.952 3.90567 163.922 4.51353 164.757 5.30865C165.59 6.10376 166.245 7.06237 166.721 8.18494C167.196 9.29959 167.434 10.5428 167.434 11.9146C167.434 13.3101 167.196 14.5649 166.721 15.6796C166.253 16.7863 165.602 17.7296 164.768 18.5088C163.934 19.2807 162.964 19.869 161.857 20.2747C160.758 20.6799 159.577 20.8825 158.314 20.8825C157.059 20.8825 155.878 20.6799 154.771 20.2747C153.672 19.869 152.706 19.2807 151.872 18.5088C151.038 17.7296 150.383 16.7863 149.907 15.6796C149.432 14.5649 149.194 13.3101 149.194 11.9146ZM185.592 3.26241L181.02 11.3183L185.919 20.3799H178.787L176.39 15.1183L173.993 20.3799H166.861L171.76 11.3183L167.188 3.26241H174.379L176.39 7.98604L178.401 3.26241H185.592Z" fill="#F40E00"/>
<path opacity="0.8" d="M137.865 25.6324C137.757 25.4335 137.6 25.2829 137.396 25.1806C137.197 25.0726 136.961 25.0186 136.688 25.0186C136.216 25.0186 135.838 25.1749 135.554 25.4875C135.27 25.7944 135.128 26.2065 135.128 26.7237C135.128 27.275 135.276 27.7069 135.571 28.0195C135.873 28.3264 136.285 28.4799 136.808 28.4799C137.166 28.4799 137.467 28.389 137.711 28.2071C137.961 28.0252 138.143 27.7638 138.257 27.4228H136.407V26.3486H139.578V27.7041C139.47 28.0678 139.286 28.406 139.024 28.7186C138.768 29.0312 138.442 29.2841 138.044 29.4774C137.646 29.6706 137.197 29.7672 136.697 29.7672C136.106 29.7672 135.577 29.6394 135.111 29.3836C134.651 29.1221 134.29 28.7612 134.028 28.3009C133.772 27.8405 133.645 27.3148 133.645 26.7237C133.645 26.1326 133.772 25.6069 134.028 25.1465C134.29 24.6804 134.651 24.3195 135.111 24.0638C135.571 23.8023 136.097 23.6716 136.688 23.6716C137.404 23.6716 138.007 23.8449 138.496 24.1916C138.99 24.5383 139.317 25.0186 139.476 25.6324H137.865ZM145.68 28.5993H147.59V29.7246H144.222V23.7398H145.68V28.5993ZM154.952 29.7843C154.389 29.7843 153.872 29.6536 153.4 29.3921C152.934 29.1307 152.562 28.7669 152.283 28.3009C152.011 27.8291 151.874 27.3006 151.874 26.7152C151.874 26.1297 152.011 25.604 152.283 25.138C152.562 24.6719 152.934 24.3082 153.4 24.0467C153.872 23.7853 154.389 23.6545 154.952 23.6545C155.515 23.6545 156.029 23.7853 156.495 24.0467C156.967 24.3082 157.336 24.6719 157.603 25.138C157.876 25.604 158.013 26.1297 158.013 26.7152C158.013 27.3006 157.876 27.8291 157.603 28.3009C157.331 28.7669 156.961 29.1307 156.495 29.3921C156.029 29.6536 155.515 29.7843 154.952 29.7843ZM154.952 28.4543C155.429 28.4543 155.81 28.2952 156.094 27.9769C156.384 27.6586 156.529 27.238 156.529 26.7152C156.529 26.1866 156.384 25.766 156.094 25.4534C155.81 25.1351 155.429 24.976 154.952 24.976C154.469 24.976 154.082 25.1323 153.792 25.4449C153.508 25.7575 153.366 26.1809 153.366 26.7152C153.366 27.2437 153.508 27.6672 153.792 27.9854C154.082 28.298 154.469 28.4543 154.952 28.4543ZM166.283 26.6555C166.63 26.7294 166.908 26.9027 167.119 27.1755C167.329 27.4427 167.434 27.7496 167.434 28.0963C167.434 28.5964 167.258 28.9943 166.906 29.2898C166.559 29.5797 166.073 29.7246 165.448 29.7246H162.66V23.7398H165.354C165.962 23.7398 166.437 23.879 166.778 24.1575C167.124 24.436 167.298 24.814 167.298 25.2914C167.298 25.6438 167.204 25.9365 167.016 26.1695C166.835 26.4026 166.59 26.5645 166.283 26.6555ZM164.118 26.161H165.073C165.311 26.161 165.493 26.1099 165.618 26.0075C165.749 25.8996 165.814 25.7433 165.814 25.5386C165.814 25.334 165.749 25.1777 165.618 25.0698C165.493 24.9618 165.311 24.9078 165.073 24.9078H164.118V26.161ZM165.192 28.5481C165.436 28.5481 165.624 28.4941 165.755 28.3861C165.891 28.2725 165.959 28.1105 165.959 27.9002C165.959 27.6899 165.888 27.5251 165.746 27.4057C165.61 27.2864 165.419 27.2267 165.175 27.2267H164.118V28.5481H165.192ZM175.842 28.6675H173.608L173.25 29.7246H171.724L173.889 23.7398H175.577L177.743 29.7246H176.2L175.842 28.6675ZM175.467 27.5421L174.725 25.3511L173.992 27.5421H175.467ZM183.696 28.5993H185.606V29.7246H182.238V23.7398H183.696V28.5993Z" fill="white"/>
</svg>
